<?xml version="1.0" encoding="UTF-8"?>
<svg version="1.1" xmlns="http://www.w3.org/2000/svg" width="629" height="178">
<path d="M0 0 C207.57 0 415.14 0 629 0 C629 58.74 629 117.48 629 178 C421.43 178 213.86 178 0 178 C0 119.26 0 60.52 0 0 Z " fill="transparent" transform="translate(0,0)"/>
<path d="M0 0 C25.79310345 0 25.79310345 0 34.8125 5.8125 C39.56559711 10.56559711 41.48902411 15.00411293 41.60693359 21.6105957 C41.59227051 22.37847412 41.57760742 23.14635254 41.5625 23.9375 C41.54823975 25.13282349 41.54823975 25.13282349 41.53369141 26.35229492 C41.32035049 32.34865457 40.38487991 36.66127672 36 41 C35.53078125 41.4846875 35.0615625 41.969375 34.578125 42.46875 C24.35305085 51.92419491 14.13051908 49 0 49 C0 32.83 0 16.66 0 0 Z " fill="#080808" transform="translate(27,103)"/>
<path d="M0 0 C4.16300808 2.65477073 7.30805539 5.21567671 9.3203125 9.83203125 C9.66578125 10.55648437 10.01125 11.2809375 10.3671875 12.02734375 C12.58117336 18.54226935 12.37615933 27.76368193 10.1953125 34.33203125 C7.25864302 39.81381428 4.33863198 44.29178986 -1.5546875 46.76953125 C-6.49091977 48.2616623 -10.96715706 48.99030155 -15.8203125 46.91796875 C-22.44084699 43.11729154 -25.64703377 38.14958469 -27.6796875 30.83203125 C-27.89071919 28.13795141 -28.00490659 25.58334598 -27.9921875 22.89453125 C-28.00830078 22.21712891 -28.02441406 21.53972656 -28.04101562 20.84179688 C-28.04729414 14.29330055 -26.0744515 8.92636607 -21.7421875 4.01953125 C-21.25878906 3.45621094 -20.77539062 2.89289063 -20.27734375 2.3125 C-14.88338152 -2.68581708 -6.5447174 -2.85258091 0 0 Z " fill="#0C0C0C" transform="translate(234.6796875,105.16796875)"/>
<path d="M0 0 C3.3 0 6.6 0 10 0 C10 16.5 10 33 10 50 C7.03 50 4.06 50 1 50 C0.67 49.01 0.34 48.02 0 47 C-0.79277344 47.72703125 -0.79277344 47.72703125 -1.6015625 48.46875 C-6.21217938 51.41233602 -11.7406017 50.6811674 -17 50 C-21.66145419 48.07481051 -24.30413691 43.70169454 -26.3046875 39.23828125 C-28.08049926 33.52176361 -27.79068344 28.06688853 -25.3125 22.625 C-23.03190073 18.60757424 -20.1361372 16.0680686 -16 14 C-14.23229673 13.87759865 -12.45939538 13.82448847 -10.6875 13.8125 C-9.74261719 13.79832031 -8.79773438 13.78414062 -7.82421875 13.76953125 C-5 14 -5 14 0 16 C0 10.72 0 5.44 0 0 Z " fill="#111111" transform="translate(201,20)"/>
<path d="M0 0 C2.0360882 1.27754554 4.04109119 2.60699818 6 4 C9.00052367 4.31438259 9.00052367 4.31438259 10.81640625 2.53125 C14.97368357 -0.38405002 20.14653353 0.28293519 25 1 C28.4911063 3.51359653 30.40851944 6.04951633 32 10 C32.22705078 12.93261719 32.22705078 12.93261719 32.1953125 16.296875 C32.18886719 17.50214844 32.18242187 18.70742188 32.17578125 19.94921875 C32.15902344 21.20347656 32.14226562 22.45773438 32.125 23.75 C32.11597656 25.01972656 32.10695313 26.28945313 32.09765625 27.59765625 C32.07409005 30.73196093 32.04118832 33.86588541 32 37 C28.7 37 25.4 37 22 37 C22 28.42 22 19.84 22 11 C13.75773705 9.01883541 13.75773705 9.01883541 10.96948242 11.59863281 C9.86009875 14.3465295 9.57058064 16.45909713 9.48828125 19.421875 C9.45283203 20.44667969 9.41738281 21.47148438 9.38085938 22.52734375 C9.35830078 23.59082031 9.33574219 24.65429688 9.3125 25.75 C9.27833984 26.82894531 9.24417969 27.90789063 9.20898438 29.01953125 C9.12659337 31.67958377 9.05741355 34.33931035 9 37 C6.03 37 3.06 37 0 37 C-0.01981934 36.25314941 -0.03963867 35.50629883 -0.06005859 34.73681641 C-0.15508211 31.36584395 -0.26485259 27.99551071 -0.375 24.625 C-0.4059375 23.449375 -0.436875 22.27375 -0.46875 21.0625 C-0.50742187 19.94101562 -0.54609375 18.81953125 -0.5859375 17.6640625 C-0.63306885 16.10872803 -0.63306885 16.10872803 -0.68115234 14.52197266 C-0.75954472 11.83190165 -0.75954472 11.83190165 -3 10 C-7.06848876 9.52365682 -7.06848876 9.52365682 -10.65942383 11.1730957 C-12.49473166 13.67420816 -12.43011948 15.45851643 -12.51171875 18.54296875 C-12.54716797 19.61611328 -12.58261719 20.68925781 -12.61914062 21.79492188 C-12.64169922 22.91447266 -12.66425781 24.03402344 -12.6875 25.1875 C-12.72166016 26.31865234 -12.75582031 27.44980469 -12.79101562 28.61523438 C-12.87356314 31.4100574 -12.94269182 34.20456398 -13 37 C-16.3 37 -19.6 37 -23 37 C-23 25.12 -23 13.24 -23 1 C-20.03 1 -17.06 1 -14 1 C-13.67 2.32 -13.34 3.64 -13 5 C-12.401875 4.360625 -11.80375 3.72125 -11.1875 3.0625 C-7.72411273 -0.20297942 -4.61354905 -0.45230873 0 0 Z " fill="#131313" transform="translate(348,33)"/>
<path d="M0 0 C3 2 3 2 5 4 C5.66 4 6.32 4 7 4 C7.57878906 3.3503125 8.15757812 2.700625 8.75390625 2.03125 C12.30016627 -1.17580254 15.55739557 -0.54874912 20.14453125 -0.38671875 C23.86949152 0.11775603 25.63069978 1.07786306 28 4 C29.92627328 7.91340759 30.23643215 11.05640775 30.1953125 15.39453125 C30.18886719 16.59658203 30.18242187 17.79863281 30.17578125 19.03710938 C30.15902344 20.28298828 30.14226562 21.52886719 30.125 22.8125 C30.11597656 24.07771484 30.10695313 25.34292969 30.09765625 26.64648438 C30.07412394 29.76451564 30.04124545 32.88216097 30 36 C27.03 36 24.06 36 21 36 C20.970271 34.87972412 20.970271 34.87972412 20.93994141 33.73681641 C20.84491789 30.36584395 20.73514741 26.99551071 20.625 23.625 C20.5940625 22.449375 20.563125 21.27375 20.53125 20.0625 C20.47324219 18.38027344 20.47324219 18.38027344 20.4140625 16.6640625 C20.3826416 15.62717285 20.3512207 14.5902832 20.31884766 13.52197266 C20.24045528 10.83190165 20.24045528 10.83190165 18 9 C13.93151124 8.52365682 13.93151124 8.52365682 10.34057617 10.1730957 C8.50526834 12.67420816 8.56988052 14.45851643 8.48828125 17.54296875 C8.45283203 18.61611328 8.41738281 19.68925781 8.38085938 20.79492188 C8.35830078 21.91447266 8.33574219 23.03402344 8.3125 24.1875 C8.27833984 25.31865234 8.24417969 26.44980469 8.20898438 27.61523438 C8.12643686 30.4100574 8.05730818 33.20456398 8 36 C4.7 36 1.4 36 -2 36 C-2.01981934 35.25314941 -2.03963867 34.50629883 -2.06005859 33.73681641 C-2.15508211 30.36584395 -2.26485259 26.99551071 -2.375 23.625 C-2.4059375 22.449375 -2.436875 21.27375 -2.46875 20.0625 C-2.50742187 18.94101562 -2.54609375 17.81953125 -2.5859375 16.6640625 C-2.63306885 15.10872803 -2.63306885 15.10872803 -2.68115234 13.52197266 C-2.75954472 10.83190165 -2.75954472 10.83190165 -5 9 C-7.95769177 8.49989476 -7.95769177 8.49989476 -11 9 C-13.9444672 11.98908691 -14.39732927 14.30385381 -14.51171875 18.421875 C-14.54716797 19.44667969 -14.58261719 20.47148438 -14.61914062 21.52734375 C-14.65297852 23.12255859 -14.65297852 23.12255859 -14.6875 24.75 C-14.72166016 25.82894531 -14.75582031 26.90789063 -14.79101562 28.01953125 C-14.87340663 30.67958377 -14.94258645 33.33931035 -15 36 C-17.97 36 -20.94 36 -24 36 C-24 24.45 -24 12.9 -24 1 C-21.03 1 -18.06 1 -15 1 C-14.67 1.66 -14.34 2.32 -14 3 C-13.44183594 2.51402344 -12.88367188 2.02804688 -12.30859375 1.52734375 C-8.45984622 -1.01895115 -4.45807963 -0.68641421 0 0 Z " fill="#0E0E0E" transform="translate(412,34)"/>
<path d="M0 0 C4.65773058 2.09247671 7.08627322 4.74141241 9.515625 9.30859375 C11.33141684 14.75596927 11.66232665 20.51165726 9.45703125 25.890625 C6.20858735 31.19905771 2.59049713 34.67139417 -3.484375 36.30859375 C-8.78041712 37.18564531 -13.08155484 36.92787659 -17.796875 34.24609375 C-22.88465105 30.51024196 -25.99640362 27.43757055 -26.99609375 21.02734375 C-27.33041081 14.0735489 -26.88768971 9.22305094 -22.28515625 3.859375 C-15.74840097 -1.76989147 -8.2435976 -2.29420877 0 0 Z " fill="#0D0D0D" transform="translate(118.484375,34.69140625)"/>
<path d="M0 0 C3.79721431 2.71934086 6.27553201 5.61149932 8.35546875 9.8203125 C9.29881038 15.9598943 9.37064534 22.01342922 6.10546875 27.4453125 C3.32521999 31.17587227 0.80154244 33.33828794 -3.64453125 34.8203125 C-9.70370186 35.27945462 -15.51587577 35.67924366 -21.20703125 33.3828125 C-25.85594155 28.49549654 -28.90006724 23.6274553 -29.20703125 16.7578125 C-28.82900036 10.3511837 -26.5843902 5.19297266 -21.83203125 0.8203125 C-15.75557349 -3.03337175 -6.42073095 -2.86419608 0 0 Z " fill="#0B0B0B" transform="translate(310.64453125,35.1796875)"/>
<path d="M0 0 C3.63 0 7.26 0 11 0 C11 9.57 11 19.14 11 29 C12.65 29 14.3 29 16 29 C16 31.97 16 34.94 16 38 C14.35 38 12.7 38 11 38 C11 40.97 11 43.94 11 47 C7.7 47 4.4 47 1 47 C1 44.03 1 41.06 1 38 C-5.93 38 -12.86 38 -20 38 C-20 29.00088158 -20 29.00088158 -17.1484375 24.94140625 C-16.54386719 24.06033203 -15.93929688 23.17925781 -15.31640625 22.27148438 C-14.67574219 21.37751953 -14.03507812 20.48355469 -13.375 19.5625 C-12.44880859 18.22735352 -12.44880859 18.22735352 -11.50390625 16.86523438 C-10.27394461 15.09279492 -9.02760273 13.3316032 -7.76464844 11.58251953 C-5.96064486 9.04551177 -5.96064486 9.04551177 -4.58691406 6.33544922 C-3.2265625 3.83984375 -3.2265625 3.83984375 0 0 Z " fill="#0C0C0C" transform="translate(310,105)"/>
<path d="M0 0 C2.2153898 1.20839444 4.27831699 2.49038133 6.34375 3.9375 C7.33375 4.5975 8.32375 5.2575 9.34375 5.9375 C9.34375 6.9275 9.34375 7.9175 9.34375 8.9375 C6.84375 11.125 6.84375 11.125 4.34375 12.9375 C-0.65625 10.9375 -0.65625 10.9375 -2.96875 9.8125 C-8.18200629 8.11516074 -12.08585509 8.15230255 -16.90625 10.5625 C-20.84673403 13.9656453 -23.32140904 16.45010998 -24.0390625 21.78125 C-24.21721164 26.57940023 -24.06972955 30.04692866 -22.03125 34.4375 C-18.16517966 38.50704772 -15.45125418 40.70588656 -9.78125 41.4375 C-5.80403792 41.25463967 -2.90055972 39.82667603 0.484375 37.8125 C2.34375 36.9375 2.34375 36.9375 6.34375 36.9375 C8.59375 38.9375 8.59375 38.9375 10.34375 40.9375 C8.84067398 45.61373652 5.4783969 46.79634357 1.34375 48.9375 C-4.2097147 51.71423235 -14.48675407 50.96333105 -20.34765625 49.06640625 C-22.38406166 47.85093923 -23.96832307 46.60023399 -25.65625 44.9375 C-26.21570312 44.40640625 -26.77515625 43.8753125 -27.3515625 43.328125 C-32.45614824 37.95228108 -34.7596262 32.32793078 -35.03125 24.9375 C-34.73074393 17.07626123 -32.12104735 11.49129656 -26.7265625 5.76953125 C-19.26812409 -0.83048312 -9.56420512 -3.82568205 0 0 Z " fill="#0D0D0D" transform="translate(58.65625,20.0625)"/>
<path d="M0 0 C4.08631432 1.43132244 6.78277441 4.34179449 9 8 C9.34057617 11.02441406 9.34057617 11.02441406 9.29296875 14.515625 C9.2784668 16.39121094 9.2784668 16.39121094 9.26367188 18.3046875 C9.23853516 19.60664063 9.21339844 20.90859375 9.1875 22.25 C9.16719727 24.22613281 9.16719727 24.22613281 9.14648438 26.2421875 C9.11112551 29.49520321 9.06177033 32.747396 9 36 C6.03 36 3.06 36 0 36 C-0.33 35.34 -0.66 34.68 -1 34 C-1.639375 34.495 -2.27875 34.99 -2.9375 35.5 C-7.07045794 37.52430593 -10.48200382 37.97144628 -15 37 C-18.92286857 34.68127843 -21.54911161 32.35266518 -23 28 C-23.66079295 22.16299559 -23.66079295 22.16299559 -22.0234375 19.28125 C-19.68114004 16.3497857 -17.47673772 14.34825017 -14 13 C-11.30859375 12.76953125 -11.30859375 12.76953125 -8.4375 12.8125 C-7.48746094 12.81894531 -6.53742188 12.82539063 -5.55859375 12.83203125 C-3 13 -3 13 0 14 C-1.11854586 10.27385847 -1.11854586 10.27385847 -4 8 C-9.25905171 7.59545756 -12.45298292 8.33833147 -17 11 C-18.65 9.35 -20.3 7.7 -22 6 C-14.64184558 -0.23843527 -9.85322491 -0.81829968 0 0 Z " fill="#0E0E0E" transform="translate(97,116)"/>
<path d="M0 0 C0.70769531 -0.01224609 1.41539062 -0.02449219 2.14453125 -0.03710938 C9.84297114 -0.0586134 13.58077385 2.28795131 19.125 7.1875 C17.475 9.1675 15.825 11.1475 14.125 13.1875 C11.16324877 12.57472388 9.74441217 11.93377478 7.125 10.1875 C1.31083519 9.51991899 -4.09080632 9.418451 -9.5 11.75 C-13.56299757 15.91991856 -15.02085772 20.07439536 -15.25 25.8125 C-15.03805447 31.2493635 -12.99935917 33.91899222 -9.4375 37.9375 C-5.21964092 41.64098603 -0.75330697 41.57081848 4.70703125 41.5546875 C8.55642158 40.97012742 9.84106344 39.23274875 12.125 36.1875 C15.46227786 37.36005709 17.89937487 38.37618404 20.125 41.1875 C20.125 41.8475 20.125 42.5075 20.125 43.1875 C18.2265625 44.66015625 18.2265625 44.66015625 15.75 46.25 C14.93789063 46.77722656 14.12578125 47.30445313 13.2890625 47.84765625 C9.15617994 50.4064626 5.70756101 50.4395174 0.9375 50.5 C0.19435547 50.52900391 -0.54878906 50.55800781 -1.31445312 50.58789062 C-8.26826616 50.66711899 -12.26775062 48.43094714 -17.5625 43.875 C-23.4865719 36.99026779 -25.31720155 30.61719979 -25.20703125 21.61328125 C-24.58664433 15.21234795 -22.28702899 10.49814774 -17.64453125 6.05078125 C-11.73266454 1.29621308 -7.56836949 0.00681835 0 0 Z " fill="#0A0A0A" transform="translate(257.875,19.8125)"/>
<path d="M0 0 C4.07557766 1.80832354 6.51773241 4.27659862 9 8 C10.06020311 14.18265816 9.12393698 19.31457563 5.8359375 24.6171875 C2.05621582 29.52278373 -2.31084813 33.96023148 -7 38 C-7.66 38 -8.32 38 -9 38 C-9 38.66 -9 39.32 -9 40 C-2.73 40 3.54 40 10 40 C10 42.64 10 45.28 10 48 C-0.56 48 -11.12 48 -22 48 C-22 39 -22 39 -20.671875 37.046875 C-20.03765625 36.61890625 -19.4034375 36.1909375 -18.75 35.75 C-14.66287091 32.6094412 -11.10348363 29.23170088 -7.5625 25.5 C-7.03043945 24.96600586 -6.49837891 24.43201172 -5.95019531 23.88183594 C-1.88013859 19.56415117 -1 15.99623531 -1 10 C-2.258125 9.79375 -3.51625 9.5875 -4.8125 9.375 C-5.52019531 9.25898437 -6.22789062 9.14296875 -6.95703125 9.0234375 C-9.31755824 8.80422152 -9.31755824 8.80422152 -12 11 C-12.33 11.99 -12.66 12.98 -13 14 C-16.14737182 13.30058404 -19.02588876 12.23921302 -22 11 C-20.86213492 6.70139859 -18.7213426 3.92872274 -15.32421875 1.1796875 C-10.47250207 -1.28286449 -5.24603947 -0.89743568 0 0 Z " fill="#0E0E0E" transform="translate(190,104)"/>
<path d="M0 0 C3.85065462 2.24864248 6.98885214 4.97770427 9 9 C9.61650035 16.15140402 8.12896438 21.26200238 3.46850586 26.82958984 C1.79251978 28.56323318 0.07406097 30.22853549 -1.6875 31.875 C-5.84357257 35.5494844 -5.84357257 35.5494844 -9 40 C-3.06 40 2.88 40 9 40 C9 42.64 9 45.28 9 48 C-1.23 48 -11.46 48 -22 48 C-22 39 -22 39 -20.28759766 36.29760742 C-19.50433105 35.57420166 -18.72106445 34.8507959 -17.9140625 34.10546875 C-17.06585938 33.29529297 -16.21765625 32.48511719 -15.34375 31.65039062 C-14.4465625 30.83763672 -13.549375 30.02488281 -12.625 29.1875 C-10.86324252 27.53936311 -9.1052589 25.88718043 -7.3515625 24.23046875 C-6.56604004 23.51270264 -5.78051758 22.79493652 -4.97119141 22.05541992 C-3.07216659 20.07525025 -1.96302194 18.55394469 -1 16 C-1.07533247 13.3727086 -1.07533247 13.3727086 -2 11 C-4.82462068 8.69212888 -4.82462068 8.69212888 -8.0625 9.125 C-11.11257974 9.69289473 -11.11257974 9.69289473 -12.375 12.0625 C-12.58125 12.701875 -12.7875 13.34125 -13 14 C-16.34373475 13.44271087 -19.03312999 12.64826111 -22 11 C-21.20799319 7.21596748 -20.0985231 4.63972045 -17.1875 2.125 C-11.94731338 -1.22959646 -5.95205492 -1.18601832 0 0 Z " fill="#0D0D0D" transform="translate(274,104)"/>
<path d="M0 0 C2.97 0 5.94 0 9 0 C9.33 0.99 9.66 1.98 10 3 C10.82371094 2.27103516 10.82371094 2.27103516 11.6640625 1.52734375 C15.77350105 -1.15959684 20.26433921 -0.62365431 25 0 C29.13496705 2.03121188 31.37342091 3.71233382 33 8 C33.22705078 11.02441406 33.22705078 11.02441406 33.1953125 14.515625 C33.18886719 15.76601563 33.18242188 17.01640625 33.17578125 18.3046875 C33.15902344 19.60664062 33.14226563 20.90859375 33.125 22.25 C33.11597656 23.56742188 33.10695313 24.88484375 33.09765625 26.2421875 C33.07408533 29.49497462 33.04118022 32.74739589 33 36 C30.03 36 27.06 36 24 36 C23.98541748 35.25314941 23.97083496 34.50629883 23.95581055 33.73681641 C23.88152054 30.36567748 23.78479801 26.99554995 23.6875 23.625 C23.66494141 22.449375 23.64238281 21.27375 23.61914062 20.0625 C23.58369141 18.94101562 23.54824219 17.81953125 23.51171875 16.6640625 C23.48553467 15.62717285 23.45935059 14.5902832 23.43237305 13.52197266 C23.28968994 12.68972168 23.14700684 11.8574707 23 11 C19.53076119 8.68717413 18.07794425 8.57521414 14 9 C12.23646318 10.11930731 12.23646318 10.11930731 11 12 C10.49520343 14.6068023 10.49520343 14.6068023 10.48828125 17.54296875 C10.45283203 18.61611328 10.41738281 19.68925781 10.38085938 20.79492188 C10.35830078 21.91447266 10.33574219 23.03402344 10.3125 24.1875 C10.27833984 25.31865234 10.24417969 26.44980469 10.20898438 27.61523438 C10.12643686 30.4100574 10.05730818 33.20456398 10 36 C6.7 36 3.4 36 0 36 C0 24.12 0 12.24 0 0 Z " fill="#131313" transform="translate(491,34)"/>
<path d="M0 0 C2.97 0 5.94 0 9 0 C9.01981934 0.74685059 9.03963867 1.49370117 9.06005859 2.26318359 C9.15508211 5.63415605 9.26485259 9.00448929 9.375 12.375 C9.4059375 13.550625 9.436875 14.72625 9.46875 15.9375 C9.52675781 17.61972656 9.52675781 17.61972656 9.5859375 19.3359375 C9.6173584 20.37282715 9.6487793 21.4097168 9.68115234 22.47802734 C9.75954472 25.16809835 9.75954472 25.16809835 12 27 C16.58798783 27.53478823 16.58798783 27.53478823 20.69067383 25.8269043 C22.48474394 23.32363623 22.43067736 21.52039581 22.51171875 18.45703125 C22.54716797 17.38388672 22.58261719 16.31074219 22.61914062 15.20507812 C22.64169922 14.08552734 22.66425781 12.96597656 22.6875 11.8125 C22.72166016 10.68134766 22.75582031 9.55019531 22.79101562 8.38476562 C22.87356314 5.5899426 22.94269182 2.79543602 23 0 C26.3 0 29.6 0 33 0 C33 11.88 33 23.76 33 36 C30.03 36 27.06 36 24 36 C23.67 35.01 23.34 34.02 23 33 C22.46246094 33.48597656 21.92492187 33.97195312 21.37109375 34.47265625 C17.02376558 37.2729945 11.98482141 36.6137263 7 36 C2.77023937 33.71592926 1.45361589 31.47464685 0 27 C-0.22705078 23.95385742 -0.22705078 23.95385742 -0.1953125 20.60546875 C-0.18886719 19.40341797 -0.18242187 18.20136719 -0.17578125 16.96289062 C-0.15902344 15.71701172 -0.14226562 14.47113281 -0.125 13.1875 C-0.11597656 11.92228516 -0.10695313 10.65707031 -0.09765625 9.35351562 C-0.07412394 6.23548436 -0.04124545 3.11783903 0 0 Z " fill="#121212" transform="translate(450,34)"/>
<path d="M0 0 C3.63 0 7.26 0 11 0 C11.95909551 2.22884145 12.91729837 4.45805968 13.875 6.6875 C14.14441406 7.31333984 14.41382812 7.93917969 14.69140625 8.58398438 C16.17446278 12.03842094 17.62227484 15.50218321 19 19 C21.0345041 16.9654959 21.67053275 15.70645577 22.7265625 13.0859375 C23.190625 11.94511719 23.190625 11.94511719 23.6640625 10.78125 C23.98117188 9.9871875 24.29828125 9.193125 24.625 8.375 C24.94984375 7.57320313 25.2746875 6.77140625 25.609375 5.9453125 C26.41078053 3.96536943 27.20598362 1.9829179 28 0 C31.3 0 34.6 0 38 0 C37.18274823 3.26900707 36.15072074 6.08038136 34.80273438 9.1484375 C33.53748742 12.06681734 32.40654726 15.03715983 31.25 18 C28.87022134 24.04173618 26.20963039 29.90453675 23.41088867 35.76196289 C21.20595127 40.42666093 19.47321418 45.0603995 18 50 C14.37 50 10.74 50 7 50 C8.41807378 45.52761347 10.11304374 41.28853694 12 37 C12.66 37 13.32 37 14 37 C13.63303831 31.37325413 11.87215744 27.43209913 9.2578125 22.46484375 C7.88321029 19.7711357 6.83650168 17.07031687 5.82421875 14.2265625 C4.04540182 9.42122767 1.99055297 4.72067898 0 0 Z " fill="#0D0D0D" transform="translate(110,117)"/>
<path d="M0 0 C2.97 0 5.94 0 9 0 C9.01981934 0.67579102 9.03963867 1.35158203 9.06005859 2.04785156 C9.15543238 5.11562044 9.26506165 8.18271998 9.375 11.25 C9.4059375 12.31347656 9.436875 13.37695312 9.46875 14.47265625 C9.50742188 15.49746094 9.54609375 16.52226563 9.5859375 17.578125 C9.6173584 18.52075195 9.6487793 19.46337891 9.68115234 20.43457031 C10.00600977 23.04835429 10.67676162 24.74353034 12 27 C16.8123115 27.41111902 16.8123115 27.41111902 21.1875 25.6875 C24.09616102 21.3746578 23.67897294 16.83812053 23.75 11.75 C23.79447266 10.203125 23.79447266 10.203125 23.83984375 8.625 C23.91044778 6.08325505 23.96319009 3.54242217 24 1 C26.97 1 29.94 1 33 1 C33 12.55 33 24.1 33 36 C30.03 36 27.06 36 24 36 C23.67 35.01 23.34 34.02 23 33 C22.46246094 33.4846875 21.92492187 33.969375 21.37109375 34.46875 C17.0134983 37.28288083 11.99157078 36.7238119 7 36 C2.59692985 33.0059123 1.40128171 30.00807226 0 25 C-0.22705078 22.02392578 -0.22705078 22.02392578 -0.1953125 18.9453125 C-0.18886719 17.83671875 -0.18242187 16.728125 -0.17578125 15.5859375 C-0.15902344 14.44382812 -0.14226562 13.30171875 -0.125 12.125 C-0.11597656 10.9596875 -0.10695312 9.794375 -0.09765625 8.59375 C-0.07417432 5.72895423 -0.04133141 2.86458465 0 0 Z " fill="#0C0C0C" transform="translate(135,34)"/>
<path d="M0 0 C3.3 0 6.6 0 10 0 C12.833313 6.2737645 15.48503078 12.59217948 18 19 C20.55751672 16.44248328 21.25090587 14.01431029 22.5 10.625 C23.86177007 6.94656013 25.24261197 3.51477606 27 0 C30.3 0 33.6 0 37 0 C34.802703 7.08017923 32.03771912 13.80694833 29.05712891 20.59130859 C27.76573539 23.53377704 26.48296255 26.47996756 25.19921875 29.42578125 C24.195725 31.72153452 23.19181586 34.01710626 22.1875 36.3125 C21.69507813 37.44107422 21.20265625 38.56964844 20.6953125 39.73242188 C20.23253906 40.78623047 19.76976562 41.84003906 19.29296875 42.92578125 C18.8755542 43.87880127 18.45813965 44.83182129 18.02807617 45.8137207 C17 48 17 48 16 49 C14.48071962 49.07179964 12.95832518 49.08392007 11.4375 49.0625 C10.61121094 49.05347656 9.78492188 49.04445312 8.93359375 49.03515625 C8.29550781 49.02355469 7.65742187 49.01195312 7 49 C7.55676298 44.68508692 9.22857047 41.35980474 11.2578125 37.57421875 C13.62326256 29.36984195 8.92553259 21.87694047 5.4375 14.6875 C4.4103698 12.5479636 3.387993 10.4061367 2.37109375 8.26171875 C1.6893811 6.85345825 1.6893811 6.85345825 0.99389648 5.41674805 C0 3 0 3 0 0 Z " fill="#0A0A0A" transform="translate(577,35)"/>
<path d="M0 0 C14 0 14 0 18.25 2.1875 C22.24031352 6.26850246 23.29486571 9.78803244 23.375 15.4375 C23.28137929 20.40608493 22.40489991 23.21677787 19 27 C12.88924744 32.37005528 9.00358142 31 0 31 C0 20.77 0 10.54 0 0 Z " fill="#F7F7F7" transform="translate(36,112)"/>
<path d="M0 0 C2.64 0 5.28 0 8 0 C8 3.3 8 6.6 8 10 C10.97 10 13.94 10 17 10 C17 12.64 17 15.28 17 18 C14.36 18 11.72 18 9 18 C9.495 26.415 9.495 26.415 10 35 C13.465 35.495 13.465 35.495 17 36 C17.09765625 42.15234375 17.09765625 42.15234375 17 44 C15.35962605 45.64037395 13.50523159 45.24911331 11.25 45.3125 C7.66707703 45.27155231 6.19226228 45.10814753 3 43.3125 C-1.44759973 38.16996281 -1.25789618 33.16363323 -1.125 26.6875 C-1.11597656 25.85154297 -1.10695313 25.01558594 -1.09765625 24.15429688 C-1.07420989 22.10274031 -1.03834266 20.05133223 -1 18 C-2.98 18 -4.96 18 -7 18 C-7 15.03 -7 12.06 -7 9 C-4.69 9 -2.38 9 0 9 C0 6.03 0 3.06 0 0 Z " fill="#121212" transform="translate(555,25)"/>
<path d="M0 0 C4.07326987 3.40483584 5.69467663 7.10193063 6.23828125 12.26171875 C6.43050921 18.54453789 5.44733685 23.65028662 2 29 C-1.68349177 31.45566118 -4.72119156 31.6915246 -9 31 C-12.8202508 28.38614419 -14.04529996 25.45526686 -15 21 C-15.54920324 14.07233108 -15.71559769 8.02183074 -12 2 C-8.04221093 -1.51803473 -4.98646531 -1.5137484 0 0 Z " fill="#F6F6F6" transform="translate(231,113)"/>
<path d="M0 0 C2.97 0 5.94 0 9 0 C9 16.17 9 32.34 9 49 C6.03 49 3.06 49 0 49 C0 32.83 0 16.66 0 0 Z " fill="#0C0C0C" transform="translate(76,21)"/>
<path d="M0 0 C2.97 0 5.94 0 9 0 C9 11.55 9 23.1 9 35 C6.03 35 3.06 35 0 35 C0 23.45 0 11.9 0 0 Z " fill="#090909" transform="translate(533,35)"/>
<path d="M0 0 C3.0216321 0.73251687 4.80104733 2.27158096 6.93359375 4.46875 C8.46574263 7.53304776 8.16297923 10.0853142 7.93359375 13.46875 C6.2822007 17.0074494 5.21754146 18.27945153 1.93359375 20.46875 C-5.15810931 21.14415029 -5.15810931 21.14415029 -8.50390625 18.65625 C-11.33290408 14.69565303 -11.55057886 11.22978066 -11.06640625 6.46875 C-8.111974 1.39081957 -5.74532084 -0.4344288 0 0 Z " fill="#F4F4F4" transform="translate(112.06640625,41.53125)"/>
<path d="M0 0 C3.4375 1.9375 3.4375 1.9375 6 5 C6.74526995 8.14606321 6.6855981 10.84624876 6 14 C4.20606332 16.87029869 3.01736724 18.49131638 0 20 C-5.22463934 20.50561026 -5.22463934 20.50561026 -8 20 C-11.29450426 16.78997021 -12.88181112 14.25280209 -13.3125 9.6875 C-12.95124058 5.42463889 -11.98007946 3.98007946 -9 1 C-5.85088521 -0.57455739 -3.47991184 -0.34799118 0 0 Z " fill="#F3F3F3" transform="translate(304,42)"/>
<path d="M0 0 C2.75329021 1.79562405 4.52627461 3.05254922 6 6 C6.5811138 13.08958838 6.5811138 13.08958838 4.125 16.9375 C1.40493999 19.57755824 0.49785154 19.94363945 -3.3125 20.375 C-7 20 -7 20 -9.875 17.9375 C-12.43175566 14.40316129 -13 12.35173775 -13 8 C-10.39743552 1.10320413 -7.33036341 -0.75831346 0 0 Z " fill="#F6F6F6" transform="translate(196,42)"/>
<path d="M0 0 C0.66 0 1.32 0 2 0 C2 5.61 2 11.22 2 17 C-1.96 17 -5.92 17 -10 17 C-7.87882734 12.75765467 -5.33007063 9.17151137 -2.55859375 5.33984375 C-0.85599119 3.00588292 -0.85599119 3.00588292 0 0 Z " fill="#D5D5D5" transform="translate(310,118)"/>
<path d="M0 0 C0.7940625 0.01417969 1.588125 0.02835938 2.40625 0.04296875 C3.59734375 0.05263672 3.59734375 0.05263672 4.8125 0.0625 C6.90625 0.23046875 6.90625 0.23046875 8.90625 1.23046875 C8.42405822 6.65512628 8.42405822 6.65512628 6.21875 9.10546875 C3.21371287 10.56737871 1.20947178 10.65215664 -2.09375 10.23046875 C-4.03125 9.04296875 -4.03125 9.04296875 -5.09375 7.23046875 C-4.81840401 3.4674069 -4.23058711 0.4656803 0 0 Z " fill="#EBEBEB" transform="translate(88.09375,135.76953125)"/>
<path d="M0 0 C1.8125 1.125 1.8125 1.125 3 3 C3.39769128 6.18153026 3.55198782 8.12844028 1.8125 10.875 C-0.65507108 12.40659584 -2.14519831 12.42822025 -5 12 C-6.8125 10.875 -6.8125 10.875 -8 9 C-8.39769128 5.81846974 -8.55198782 3.87155972 -6.8125 1.125 C-4.34492892 -0.40659584 -2.85480169 -0.42822025 0 0 Z " fill="#0F0F0F" transform="translate(540,19)"/>
<path d="M0 0 C2.4375 1.25 2.4375 1.25 4 3 C4 4.32 4 5.64 4 7 C-0.95 7 -5.9 7 -11 7 C-11.33 5.68 -11.66 4.36 -12 3 C-7.90914193 0.0248305 -5.02638169 -0.54833255 0 0 Z " fill="#EDEDED" transform="translate(93,123)"/>
<path d="M0 0 C0 0.33 0 0.66 0 1 C-1.19625 1.28875 -2.3925 1.5775 -3.625 1.875 C-7.14726836 2.7524334 -10.57201821 3.80020637 -14 5 C-9.10666796 -0.05644311 -6.85563609 -0.11057478 0 0 Z " fill="#BABABA" transform="translate(53,28)"/>
<path d="M0 0 C0.66 0.33 1.32 0.66 2 1 C-0.97 3.97 -3.94 6.94 -7 10 C-7 7 -7 7 -4.625 4.4375 C-3.75875 3.633125 -2.8925 2.82875 -2 2 C-1.34 1.34 -0.68 0.68 0 0 Z " fill="#2A2A2A" transform="translate(244,23)"/>
<path d="M0 0 C0 0.33 0 0.66 0 1 C-1.5778125 1.37125 -1.5778125 1.37125 -3.1875 1.75 C-6.8133541 2.76700786 -9.19910772 4.45373429 -12 7 C-9.69656113 0.26687101 -6.85869086 -0.25881852 0 0 Z " fill="#D1D1D1" transform="translate(196,42)"/>
<path d="M0 0 C1.4540625 0.0309375 1.4540625 0.0309375 2.9375 0.0625 C2.339375 0.330625 1.74125 0.59875 1.125 0.875 C-1.10577908 1.9518979 -1.10577908 1.9518979 -2.6875 3.6875 C-3.14125 4.14125 -3.595 4.595 -4.0625 5.0625 C-4.7225 5.0625 -5.3825 5.0625 -6.0625 5.0625 C-3.64893617 0.07446809 -3.64893617 0.07446809 0 0 Z " fill="#D3D3D3" transform="translate(404.0625,41.9375)"/>
<path d="M0 0 C0.66 0.33 1.32 0.66 2 1 C-0.31 3.31 -2.62 5.62 -5 8 C-5 5 -5 5 -2.5 2.3125 C-1.675 1.549375 -0.85 0.78625 0 0 Z " fill="#2F2F2F" transform="translate(290,36)"/>
</svg>
